<svg width="37" height="36" viewBox="0 0 37 36" fill="none" xmlns="http://www.w3.org/2000/svg">
<path d="M18.5 3C10.22 3 3.5 9.72 3.5 18C3.5 26.28 10.22 33 18.5 33C26.78 33 33.5 26.28 33.5 18C33.5 9.72 26.78 3 18.5 3ZM17 29.895C11.075 29.16 6.5 24.12 6.5 18C6.5 17.07 6.62 16.185 6.815 15.315L14 22.5V24C14 25.65 15.35 27 17 27V29.895ZM27.35 26.085C26.96 24.87 25.85 24 24.5 24H23V19.5C23 18.675 22.325 18 21.5 18H12.5V15H15.5C16.325 15 17 14.325 17 13.5V10.5H20C21.65 10.5 23 9.15 23 7.5V6.885C27.395 8.67 30.5 12.975 30.5 18C30.5 21.12 29.3 23.955 27.35 26.085Z" fill="black"/>
</svg>
