<svg width="206" height="206" viewBox="0 0 206 206" fill="none" xmlns="http://www.w3.org/2000/svg">
<path d="M103 206C159.885 206 206 159.885 206 103C206 46.1147 159.885 0 103 0C46.1147 0 0 46.1147 0 103C0 159.885 46.1147 206 103 206Z" fill="#E18560"/>
<path d="M47.4675 70.3023C45.8642 70.3509 40.86 71.8085 36.6331 73.6061C32.4062 75.4038 26.576 79.3877 25.993 79.9222C25.41 80.4566 25.2156 80.991 26.1873 81.2825C27.159 81.574 39.1595 84.2948 41.8317 85.0236C44.5038 85.7038 46.7387 90.1736 46.8359 92.2141C46.9331 94.2547 43.8236 96.3439 42.0746 97.3641C40.3255 98.433 35.1269 101.397 33.2807 101.494C31.4831 101.591 31.3859 101.494 30.317 101.057C29.1996 100.619 26.6732 99.1618 26.6246 98.0443C26.576 96.9269 28.0821 96.1981 29.0052 95.7608C29.9284 95.3236 39.0623 92.1656 39.7911 91.7283C40.5199 91.291 40.2769 90.4165 39.4996 90.2707C38.7708 90.125 33.5236 89.2019 30.6571 88.5217C27.7906 87.8415 18.851 86.724 18.8024 79.9707C18.7538 76.1325 19.9685 74.2863 23.8067 72.1972C27.5963 70.0594 34.5925 65.0552 43.7751 63.8405C49.7024 63.0632 52.7633 65.1523 54.2208 67.2901C55.6784 69.4278 53.492 70.9825 51.8887 71.0311C50.334 71.1769 49.2651 70.2538 47.4675 70.3023ZM70.4482 72.683C63.3548 69.525 58.7392 72.9259 56.5043 77.3957C53.7835 82.8373 53.9779 89.542 58.8364 92.8457C62.043 95.0321 69.8166 95.7608 73.1203 89.8821C76.4727 84.0033 77.5416 75.7924 70.4482 72.683ZM67.4845 85.0722C65.9298 87.5014 62.043 89.0561 61.217 88.3759C60.0996 87.4042 60.634 84.3434 62.2859 81.3311C63.8892 78.3189 67.8246 76.8613 68.8934 77.6387C70.0109 78.3674 68.7963 82.983 67.4845 85.0722ZM105.429 62.7717C105.381 61.9457 104.846 60.0509 100.814 60.1967C96.7812 60.3424 91.7769 64.4722 88.2302 70.108C84.6835 75.6953 82.4001 82.0113 82.5944 86.724C82.7887 91.4368 86.8699 95.6151 92.2628 95.4207C97.6557 95.1778 104.166 88.8618 105.575 87.0641C106.984 85.2665 106.45 83.4689 105.526 82.5457C104.603 81.6226 102.757 81.3311 101.931 82.4486C101.105 83.566 99.6963 85.1207 96.684 87.3071C93.6717 89.542 91.2911 90.1736 90.4651 89.7363C87.8416 88.3759 90.125 81.6226 93.3802 76.084C96.6354 70.5453 102.077 66.0269 103.534 64.958C104.555 64.1321 105.429 63.549 105.429 62.7717ZM113.883 78.7075C114.223 82.1085 114.369 85.9467 115.389 87.7929C116.409 89.6391 118.353 90.8052 119.082 90.8052C119.81 90.7566 120.393 89.6877 120.831 87.6957C121.268 85.7038 121.268 79.242 121.025 73.7033C120.782 68.116 117.576 68.0674 115.924 68.0674C114.32 68.0674 112.96 69.3306 113.3 71.274C113.64 72.9259 113.543 75.258 113.883 78.7075ZM159.456 87.4528C159.164 85.8495 157.804 81.7198 155.763 76.1811C153.723 70.5939 151.051 65.541 149.739 62.966C148.427 60.391 147.115 58.6906 143.568 58.9821C140.022 59.2736 139.147 61.1684 138.03 63.5005C136.912 65.8325 135.649 68.2618 132.588 76.667C129.527 85.0722 127.681 91.5339 127.195 93.1372C126.418 95.858 127.098 97.4613 129.187 97.3641C131.276 97.267 132.394 95.5665 133.366 92.8943C134.337 90.2222 136.621 84.7806 136.621 84.7806C136.621 84.7806 138.904 84.5377 143.18 83.566C147.455 82.5943 150.322 81.7198 150.322 81.7198C150.322 81.7198 151.196 85.2665 152.022 87.4528C152.848 89.6391 154.84 90.9023 157.075 90.8052C159.31 90.6594 159.699 89.0561 159.456 87.4528ZM147.164 75.5495C146.289 75.9382 145.415 76.3269 143.034 77.0071C140.751 77.6873 139.147 78.2217 138.807 78.3674C138.467 78.5132 138.273 78.6589 138.418 78.3189C138.418 78.3189 142.208 68.116 142.548 67.2415C142.84 66.367 143.471 65.1038 144.346 66.4156C145.22 67.7273 147.309 73.1203 147.747 74.0434C148.135 74.9665 147.99 75.1608 147.164 75.5495ZM186.08 94.4976C187.246 93.7203 187.441 92.0684 186.712 90.7566C185.983 89.4448 184.088 89.542 182.776 90.125C181.465 90.708 175.78 92.9915 175.051 93.2344C174.323 93.4773 173.983 92.8943 173.885 92.2627C173.788 91.6797 173.448 88.3273 173.157 81.7684C172.865 75.258 172.768 71.274 172.622 66.7556C172.476 62.2372 171.699 59.4679 168.201 59.6137C164.703 59.7594 165.772 65.4439 165.917 70.8854C166.063 76.3269 166.986 89.6391 167.472 94.692C167.958 99.6962 170.97 100.474 173.351 100.376C176.217 100.231 184.914 95.275 186.08 94.4976Z" fill="white"/>
<path d="M46.6901 115.779C45.9614 115.779 45.2812 115.779 44.5524 115.73V121.755H43.2406V106.062C44.4066 106.013 45.767 106.013 46.9816 106.013C50.5283 106.013 51.9373 107.811 51.9373 110.823C51.9373 113.787 50.1882 115.779 46.6901 115.779ZM46.7873 107.131C46.1071 107.131 45.184 107.131 44.601 107.179V114.564C45.0868 114.564 45.7184 114.613 46.7387 114.613C49.6538 114.613 50.5769 113.058 50.5769 110.872C50.5769 108.637 49.8482 107.131 46.7873 107.131Z" fill="white"/>
<path d="M66.0269 121.754L64.958 118.11H58.8363L57.8161 121.754H56.4557L61.0713 106.012H62.7717L67.3873 121.754H66.0269ZM61.8972 107.47L59.1279 117.041H64.6665L61.8972 107.47Z" fill="white"/>
<path d="M82.1085 121.754L78.2217 114.077H75.8897V121.754H74.5779V106.061C75.7925 106.012 77.0557 106.012 78.1732 106.012C81.7199 106.012 82.9831 107.518 82.9831 109.899C82.9831 111.988 81.7684 113.543 79.5335 113.883L83.6147 121.754H82.1085ZM78.1246 107.13C77.3958 107.13 76.6184 107.13 75.9383 107.178V113.008H78.2217C80.6996 113.008 81.6713 111.745 81.6713 110.045C81.6227 108.247 80.9425 107.13 78.1246 107.13Z" fill="white"/>
<path d="M94.6434 107.178V121.754H93.3316V107.178H89.3477V106.012H98.676V107.178H94.6434Z" fill="white"/>
<path d="M113.494 121.754L106.693 107.47V121.754H105.429V106.012H107.373L113.98 119.956V106.012H115.243V121.754H113.494Z" fill="white"/>
<path d="M123.892 121.754V106.012H130.791V107.13H125.252V113.057H130.305V114.175H125.252V120.588H130.888V121.705H123.892V121.754Z" fill="white"/>
<path d="M145.998 121.754L142.111 114.077H139.779V121.754H138.467V106.061C139.682 106.012 140.945 106.012 142.062 106.012C145.609 106.012 146.872 107.518 146.872 109.899C146.872 111.988 145.658 113.543 143.423 113.883L147.504 121.754H145.998ZM142.014 107.13C141.285 107.13 140.508 107.13 139.827 107.178V113.008H142.111C144.589 113.008 145.56 111.745 145.56 110.045C145.512 108.247 144.832 107.13 142.014 107.13Z" fill="white"/>
<path d="M158.241 121.851C157.075 121.851 155.666 121.511 154.451 120.782L154.889 119.762C155.958 120.296 156.978 120.685 158.241 120.685C160.33 120.685 161.448 119.567 161.448 117.818C161.448 113.786 154.306 114.32 154.306 109.753C154.306 107.518 155.86 105.915 158.581 105.915C159.844 105.915 161.205 106.304 162.176 106.887L161.691 107.81C160.865 107.421 159.65 107.033 158.581 107.033C156.589 107.033 155.617 108.101 155.617 109.608C155.617 113.397 162.759 112.814 162.759 117.673C162.711 120.248 161.059 121.851 158.241 121.851Z" fill="white"/>
</svg>
