<svg width="105" height="105" viewBox="0 0 105 105" fill="none" xmlns="http://www.w3.org/2000/svg">
<path d="M52.5 105C81.4949 105 105 81.4949 105 52.5C105 23.5051 81.4949 0 52.5 0C23.5051 0 0 23.5051 0 52.5C0 81.4949 23.5051 105 52.5 105Z" fill="#E18560"/>
<path d="M24.1946 35.8337C23.3773 35.8585 20.8266 36.6014 18.6722 37.5177C16.5177 38.434 13.546 40.4646 13.2488 40.737C12.9516 41.0094 12.8526 41.2819 13.3479 41.4304C13.8432 41.579 19.9599 42.9658 21.3219 43.3373C22.6839 43.684 23.8231 45.9623 23.8726 47.0024C23.9222 48.0425 22.3373 49.1073 21.4457 49.6274C20.5542 50.1722 17.9045 51.6828 16.9634 51.7323C16.0472 51.7819 15.9976 51.7323 15.4528 51.5095C14.8832 51.2866 13.5955 50.5436 13.5707 49.9741C13.546 49.4045 14.3137 49.033 14.7842 48.8102C15.2547 48.5873 19.9104 46.9776 20.2818 46.7547C20.6533 46.5319 20.5295 46.0861 20.1332 46.0118C19.7618 45.9375 17.0873 45.467 15.6262 45.1203C14.1651 44.7736 9.60848 44.204 9.58372 40.7618C9.55895 38.8054 10.1781 37.8644 12.1344 36.7995C14.066 35.7099 17.6321 33.1592 22.3125 32.5401C25.3337 32.1439 26.8939 33.2087 27.6368 34.2984C28.3797 35.388 27.2653 36.1804 26.4481 36.2052C25.6556 36.2795 25.1108 35.809 24.1946 35.8337ZM35.908 37.0472C32.2924 35.4375 29.9398 37.171 28.8007 39.4493C27.4139 42.2229 27.513 45.6403 29.9894 47.3243C31.6238 48.4387 35.5861 48.8102 37.27 45.8137C38.9788 42.8172 39.5236 38.6321 35.908 37.0472ZM34.3974 43.362C33.6049 44.6003 31.6238 45.3927 31.2028 45.046C30.6332 44.5507 30.9056 42.9906 31.7476 41.4552C32.5648 39.9198 34.5707 39.1769 35.1155 39.5731C35.6851 39.9446 35.066 42.2972 34.3974 43.362ZM53.7382 31.9953C53.7134 31.5743 53.441 30.6085 51.3856 30.6828C49.3302 30.7571 46.7795 32.862 44.9717 35.7347C43.1639 38.5826 42 41.8019 42.099 44.204C42.1981 46.6061 44.2783 48.7359 47.0271 48.6368C49.7759 48.513 53.0943 45.2936 53.8125 44.3774C54.5306 43.4611 54.2582 42.5448 53.7877 42.0743C53.3172 41.6038 52.3762 41.4552 51.9552 42.0248C51.5342 42.5944 50.816 43.3868 49.2806 44.5012C47.7453 45.6403 46.5318 45.9623 46.1108 45.7394C44.7736 45.046 45.9375 41.6038 47.5967 38.7807C49.2559 35.9576 52.0295 33.6545 52.7724 33.1097C53.2924 32.6887 53.7382 32.3915 53.7382 31.9953ZM58.0471 40.1179C58.2205 41.8514 58.2948 43.8078 58.8148 44.7488C59.3349 45.6899 60.3255 46.2842 60.6969 46.2842C61.0684 46.2594 61.3655 45.7146 61.5884 44.6993C61.8113 43.684 61.8113 40.3903 61.6875 37.5672C61.5637 34.7193 59.9292 34.6946 59.0872 34.6946C58.27 34.6946 57.5766 35.3385 57.75 36.329C57.9233 37.171 57.8738 38.3597 58.0471 40.1179ZM81.2759 44.5755C81.1273 43.7583 80.4339 41.6533 79.3938 38.8302C78.3537 35.9823 76.9917 33.4069 76.3231 32.0944C75.6544 30.7818 74.9858 29.9151 73.178 30.0637C71.3703 30.2123 70.9245 31.1781 70.3549 32.3668C69.7854 33.5554 69.1415 34.7936 67.5813 39.0778C66.0212 43.362 65.0802 46.6557 64.8325 47.4729C64.4363 48.8597 64.783 49.6769 65.8479 49.6274C66.9127 49.5778 67.4823 48.7111 67.9776 47.3491C68.4729 45.987 69.6368 43.2135 69.6368 43.2135C69.6368 43.2135 70.8007 43.0896 72.9799 42.5944C75.1592 42.0991 76.6202 41.6533 76.6202 41.6533C76.6202 41.6533 77.066 43.4611 77.487 44.5755C77.908 45.6899 78.9233 46.3337 80.0625 46.2842C81.2016 46.2099 81.3997 45.3927 81.2759 44.5755ZM75.0106 38.5083C74.5648 38.7064 74.1191 38.9045 72.9056 39.2512C71.7417 39.5979 70.9245 39.8703 70.7512 39.9446C70.5778 40.0189 70.4787 40.0932 70.553 39.9198C70.553 39.9198 72.4846 34.7193 72.658 34.2736C72.8066 33.8278 73.1285 33.184 73.5743 33.8526C74.02 34.5212 75.0849 37.2701 75.3078 37.7406C75.5059 38.2111 75.4316 38.3102 75.0106 38.5083ZM94.8467 48.1663C95.441 47.7701 95.5401 46.9281 95.1686 46.2594C94.7971 45.5908 93.8313 45.6403 93.1627 45.9375C92.4941 46.2347 89.5967 47.3986 89.2252 47.5224C88.8537 47.6462 88.6804 47.3491 88.6309 47.0271C88.5813 46.73 88.408 45.0212 88.2594 41.6781C88.1108 38.3597 88.0613 36.329 87.987 34.026C87.9127 31.7229 87.5165 30.3113 85.7335 30.3856C83.9504 30.4599 84.4952 33.3573 84.5695 36.1309C84.6438 38.9045 85.1144 45.6899 85.362 48.2653C85.6096 50.8161 87.145 51.2123 88.3585 51.1628C89.8195 51.0885 94.2523 48.5625 94.8467 48.1663Z" fill="white"/>
<path d="M23.7984 59.0122C23.4269 59.0122 23.0802 59.0122 22.7087 58.9875V62.0582H22.0401V54.0594C22.6344 54.0346 23.3278 54.0346 23.9469 54.0346C25.7547 54.0346 26.4729 54.9509 26.4729 56.4863C26.4729 57.9969 25.5814 59.0122 23.7984 59.0122ZM23.8479 54.6042C23.5012 54.6042 23.0307 54.6042 22.7335 54.629V58.3931C22.9811 58.3931 23.3031 58.4179 23.8231 58.4179C25.309 58.4179 25.7795 57.6254 25.7795 56.5111C25.7795 55.3719 25.408 54.6042 23.8479 54.6042Z" fill="white"/>
<path d="M33.6545 62.059L33.1097 60.2017H29.9894L29.4693 62.059H28.7759L31.1285 54.0354H31.9953L34.3479 62.059H33.6545ZM31.5495 54.7783L30.138 59.6569H32.9611L31.5495 54.7783Z" fill="white"/>
<path d="M41.8514 62.059L39.8703 58.1463H38.6816V62.059H38.013V54.0602C38.6321 54.0354 39.2759 54.0354 39.8455 54.0354C41.6533 54.0354 42.2972 54.8031 42.2972 56.0165C42.2972 57.0814 41.6781 57.8738 40.5389 58.0472L42.6191 62.059H41.8514ZM39.8208 54.605C39.4493 54.605 39.0531 54.605 38.7064 54.6297V57.6014H39.8703C41.1333 57.6014 41.6285 56.9576 41.6285 56.0908C41.6038 55.1746 41.2571 54.605 39.8208 54.605Z" fill="white"/>
<path d="M48.2406 54.6297V62.059H47.572V54.6297H45.5413V54.0354H50.296V54.6297H48.2406Z" fill="white"/>
<path d="M57.8491 62.059L54.3821 54.7783V62.059H53.7382V54.0354H54.7288L58.0967 61.1427V54.0354H58.7406V62.059H57.8491Z" fill="white"/>
<path d="M63.1486 62.059V54.0354H66.6651V54.605H63.842V57.6262H66.4175V58.1958H63.842V61.4646H66.7146V62.0342H63.1486V62.059Z" fill="white"/>
<path d="M74.4163 62.059L72.4351 58.1463H71.2465V62.059H70.5778V54.0602C71.1969 54.0354 71.8408 54.0354 72.4104 54.0354C74.2181 54.0354 74.862 54.8031 74.862 56.0165C74.862 57.0814 74.2429 57.8738 73.1038 58.0472L75.184 62.059H74.4163ZM72.3856 54.605C72.0141 54.605 71.6179 54.605 71.2712 54.6297V57.6014H72.4351C73.6981 57.6014 74.1934 56.9576 74.1934 56.0908C74.1686 55.1746 73.8219 54.605 72.3856 54.605Z" fill="white"/>
<path d="M80.6568 62.1085C80.0625 62.1085 79.3443 61.9351 78.7252 61.5637L78.9481 61.0436C79.4929 61.316 80.013 61.5142 80.6568 61.5142C81.7217 61.5142 82.2913 60.9446 82.2913 60.0531C82.2913 57.9977 78.6509 58.2701 78.6509 55.9422C78.6509 54.8031 79.4434 53.9859 80.8302 53.9859C81.474 53.9859 82.1674 54.184 82.6627 54.4812L82.4151 54.9517C81.9941 54.7536 81.375 54.5554 80.8302 54.5554C79.8148 54.5554 79.3196 55.1003 79.3196 55.8679C79.3196 57.7995 82.9599 57.5024 82.9599 59.9788C82.9351 61.2913 82.0932 62.1085 80.6568 62.1085Z" fill="white"/>
<path d="M10.5495 68.5719C10.7972 68.5224 11.1191 68.4729 11.4658 68.4729C11.9611 68.4729 12.3573 68.6215 12.5802 68.8691C12.7535 69.0672 12.8278 69.3149 12.8278 69.6368C12.8278 70.1321 12.5802 70.5778 12.283 70.8255C11.9363 71.1474 11.3915 71.296 10.8715 71.296C10.6981 71.296 10.5248 71.296 10.3267 71.2465L9.93043 73.3019H9.65802L10.5495 68.5719ZM10.4257 70.974C10.6238 71.0236 10.7724 71.0236 10.9458 71.0236C11.8868 71.0236 12.5059 70.454 12.5059 69.6615C12.5059 69.0177 12.0601 68.7453 11.4163 68.7453C11.1686 68.7453 10.9705 68.77 10.8467 68.7948L10.4257 70.974Z" fill="white"/>
<path d="M12.9269 73.3019L13.3726 70.9988C13.4469 70.6026 13.4965 70.2064 13.546 69.8844H13.8432C13.8184 70.1321 13.7689 70.3797 13.7193 70.6521H13.7441C13.967 70.1816 14.3137 69.8101 14.7594 69.8101C14.809 69.8101 14.8832 69.8101 14.908 69.8349L14.8337 70.1568C14.809 70.1321 14.7594 70.1321 14.6851 70.1321C14.2641 70.1321 13.7193 70.7759 13.546 71.6427L13.224 73.3019H12.9269Z" fill="white"/>
<path d="M17.9788 71.2465C17.9788 72.1875 17.2854 73.4009 16.171 73.4009C15.329 73.4009 14.908 72.7075 14.908 72.0141C14.908 70.9245 15.6757 69.8349 16.7158 69.8349C17.6321 69.8101 17.9788 70.5531 17.9788 71.2465ZM15.2547 71.9646C15.2547 72.6085 15.6262 73.1038 16.2205 73.1038C16.9882 73.1038 17.6568 72.1627 17.6568 71.2217C17.6568 70.7759 17.434 70.0578 16.691 70.0578C15.8491 70.0825 15.2547 71.0236 15.2547 71.9646Z" fill="white"/>
<path d="M19.737 68.9929L19.5637 69.8844H20.4304L20.3809 70.1568H19.5141L19.1427 72.138C19.0932 72.3608 19.0684 72.5342 19.0684 72.7571C19.0684 72.9799 19.1922 73.1285 19.4151 73.1285C19.5389 73.1285 19.6132 73.1038 19.6875 73.1038L19.7123 73.3514C19.6132 73.3762 19.4894 73.4009 19.3408 73.4009C18.895 73.4009 18.7217 73.079 18.7217 72.7818C18.7217 72.5837 18.7465 72.3608 18.796 72.138L19.1674 70.1816H18.6474L18.6969 69.9092H19.217L19.3656 69.1167L19.737 68.9929Z" fill="white"/>
<path d="M22.7335 73.1038C22.5602 73.2276 22.2135 73.3762 21.6934 73.3762C20.8267 73.3762 20.5047 72.7323 20.5047 72.0389C20.5047 71.0236 21.2724 69.8101 22.2878 69.8101C22.9069 69.8101 23.1793 70.2063 23.1793 70.6026C23.1793 71.5189 22.0649 71.717 20.8762 71.6922C20.8267 71.8655 20.8514 72.2865 20.9257 72.5342C21.0495 72.9304 21.3715 73.1285 21.7429 73.1285C22.1639 73.1285 22.4611 72.9799 22.6344 72.8809L22.7335 73.1038ZM22.2382 70.0825C21.6191 70.0825 21.0991 70.7264 20.9257 71.395C21.9411 71.4198 22.8573 71.2712 22.8573 70.6026C22.8573 70.2559 22.6097 70.0825 22.2382 70.0825Z" fill="white"/>
<path d="M23.4517 74.2677C23.6745 74.4162 23.9717 74.5153 24.3679 74.5153C24.987 74.5153 25.4823 74.1686 25.73 73.1038L25.8785 72.4599H25.8538C25.5318 73.0542 25.0613 73.3266 24.5413 73.3266C23.8479 73.3266 23.5259 72.7323 23.5259 72.1627C23.5259 70.974 24.3927 69.8101 25.6309 69.8101C25.9776 69.8101 26.4234 69.9339 26.6215 70.033L26.1014 72.8561C25.9528 73.6486 25.7547 74.0943 25.4328 74.3915C25.1109 74.6887 24.6651 74.7629 24.3184 74.7629C23.9222 74.7629 23.5507 74.6639 23.3526 74.5153L23.4517 74.2677ZM26.25 70.2311C26.1262 70.1568 25.8538 70.0825 25.5566 70.0825C24.5413 70.0825 23.8726 71.1226 23.8479 72.0884C23.8479 72.4846 23.9717 73.0542 24.6156 73.0542C25.2347 73.0542 25.8538 72.2618 25.9776 71.5188L26.25 70.2311Z" fill="white"/>
<path d="M27.1168 73.3019L27.7606 69.8844H28.0826L27.4387 73.3019H27.1168ZM27.8597 68.9186C27.8597 68.7701 27.9835 68.6462 28.1321 68.6462C28.3054 68.6462 28.3797 68.7701 28.3797 68.9186C28.355 69.0672 28.2807 69.191 28.1073 69.191C27.934 69.191 27.8597 69.0672 27.8597 68.9186Z" fill="white"/>
<path d="M28.5779 73.3019L29.0484 70.8007C29.1227 70.454 29.1722 70.1568 29.197 69.8844H29.4941L29.3951 70.5778H29.4198C29.7418 70.0825 30.1875 69.8101 30.658 69.8101C31.1533 69.8101 31.4257 70.1321 31.4505 70.6521C31.7477 70.1321 32.1934 69.8349 32.763 69.8101C33.0849 69.8101 33.5802 70.0082 33.5802 70.7016C33.5802 70.875 33.5554 71.0731 33.5307 71.2712L33.1345 73.3019H32.8125L33.2087 71.2712C33.2335 71.1474 33.2583 70.9493 33.2583 70.8007C33.2583 70.3549 33.1097 70.0825 32.6392 70.0825C32.1439 70.0825 31.5495 70.6026 31.401 71.4198L31.0543 73.3019H30.7323L31.1286 71.2217C31.1533 71.0483 31.1781 70.9245 31.1781 70.7759C31.1781 70.454 31.1038 70.0825 30.5342 70.0825C30.0637 70.0825 29.4198 70.7016 29.2712 71.4693L28.9245 73.3019H28.5779Z" fill="white"/>
<path d="M37.8148 73.3019C37.8148 73.079 37.8396 72.7075 37.9139 72.2865H37.8891C37.4929 73.079 36.9976 73.3762 36.4528 73.3762C35.8585 73.3762 35.5118 72.8809 35.5118 72.2865C35.5118 71.0731 36.4528 69.8101 37.8148 69.8101C38.0872 69.8101 38.4092 69.8596 38.6073 69.9092L38.2606 71.6922C38.1368 72.3856 38.0872 72.9552 38.112 73.3019H37.8148ZM38.2358 70.1568C38.1615 70.1321 38.013 70.0825 37.7406 70.0825C36.7005 70.0825 35.8337 71.0731 35.8337 72.237C35.8337 72.658 35.9575 73.1038 36.5271 73.1038C37.1462 73.1038 37.8396 72.2865 38.013 71.3207L38.2358 70.1568Z" fill="white"/>
<path d="M42.2477 74.7134L42.6439 72.6085H42.6191C42.3219 73.1038 41.8267 73.4009 41.3561 73.4009C40.638 73.4009 40.3656 72.8066 40.3656 72.1875C40.3656 71.0236 41.2818 69.8349 42.4458 69.8349C42.8915 69.8349 43.2382 69.9587 43.4363 70.0578L42.5448 74.7382H42.2477V74.7134ZM43.0896 70.2311C42.9658 70.1568 42.7182 70.0825 42.421 70.0825C41.5295 70.0825 40.7123 70.974 40.7123 72.138C40.7123 72.7323 40.9847 73.1038 41.4057 73.1038C42.0991 73.1038 42.6934 72.3361 42.842 71.5684L43.0896 70.2311Z" fill="white"/>
<path d="M47.0519 69.8844L46.5814 72.3856C46.5071 72.7323 46.4823 73.0295 46.4575 73.3019H46.1604L46.2594 72.6085H46.2347C45.9623 73.0542 45.4917 73.4009 45.0212 73.4009C44.6498 73.4009 44.1049 73.2524 44.1049 72.3856C44.1049 72.237 44.1297 72.0637 44.1792 71.8408L44.5507 69.9092H44.8726L44.5012 71.8656C44.4516 72.0884 44.4269 72.237 44.4269 72.4104C44.4269 72.8561 44.6002 73.1285 45.0955 73.1285C45.566 73.1285 46.2347 72.5837 46.3833 71.7913L46.73 69.934H47.0519V69.8844Z" fill="white"/>
<path d="M47.5719 73.3019L48.2158 69.8844H48.5377L47.8939 73.3019H47.5719ZM48.3149 68.9186C48.3149 68.7701 48.4387 68.6462 48.5873 68.6462C48.7606 68.6462 48.8349 68.7701 48.8349 68.9186C48.8101 69.0672 48.7358 69.191 48.5625 69.191C48.3891 69.191 48.3149 69.0672 48.3149 68.9186Z" fill="white"/>
<path d="M50.3208 73.3019L50.7913 70.8007C50.8656 70.454 50.9151 70.1568 50.9399 69.8844H51.237L51.138 70.5778H51.1628C51.4847 70.0825 51.9304 69.8101 52.401 69.8101C52.8962 69.8101 53.1686 70.1321 53.1934 70.6521C53.4906 70.1321 53.9363 69.8349 54.5059 69.8101C54.8278 69.8101 55.3231 70.0082 55.3231 70.7016C55.3231 70.875 55.2984 71.0731 55.2736 71.2712L54.8774 73.3019H54.5554L54.9517 71.2712C54.9764 71.1474 55.0012 70.9493 55.0012 70.8007C55.0012 70.3549 54.8526 70.0825 54.3821 70.0825C53.8868 70.0825 53.2925 70.6026 53.1439 71.4198L52.7477 73.3019H52.4257L52.8219 71.2217C52.8467 71.0483 52.8715 70.9245 52.8715 70.7759C52.8715 70.454 52.7972 70.0825 52.2276 70.0825C51.7571 70.0825 51.1132 70.7016 50.9646 71.4693L50.6179 73.3019H50.3208Z" fill="white"/>
<path d="M58.1958 73.1038C58.0224 73.2276 57.6757 73.3762 57.1557 73.3762C56.2889 73.3762 55.967 72.7323 55.967 72.0389C55.967 71.0236 56.7347 69.8101 57.75 69.8101C58.3691 69.8101 58.6415 70.2064 58.6415 70.6026C58.6415 71.5189 57.5271 71.717 56.3384 71.6922C56.2889 71.8656 56.3137 72.2865 56.388 72.5342C56.5118 72.9304 56.8337 73.1285 57.2052 73.1285C57.6262 73.1285 57.9234 72.9799 58.0967 72.8809L58.1958 73.1038ZM57.7005 70.0825C57.0814 70.0825 56.5613 70.7264 56.388 71.395C57.4033 71.4198 58.3196 71.2712 58.3196 70.6026C58.2948 70.2559 58.0472 70.0825 57.7005 70.0825ZM58.7158 68.4729L57.75 69.4634H57.4776L58.1958 68.4729H58.7158Z" fill="white"/>
<path d="M58.9387 72.9057C59.0873 73.0047 59.3349 73.1038 59.5825 73.1038C60.0531 73.1038 60.375 72.7818 60.375 72.3856C60.375 72.0637 60.2512 71.8656 59.8797 71.6427C59.4835 71.4198 59.3349 71.0979 59.3349 70.8007C59.3349 70.2807 59.7806 69.8349 60.3997 69.8349C60.6474 69.8349 60.895 69.9092 60.9941 70.0083L60.8703 70.2807C60.7712 70.2064 60.5731 70.1073 60.3502 70.1073C59.9292 70.1073 59.6321 70.4045 59.6321 70.7512C59.6321 71.0731 59.8054 71.2465 60.1273 71.4446C60.5236 71.6674 60.6969 71.9894 60.6969 72.3113C60.6969 72.9799 60.1521 73.3762 59.5578 73.3762C59.2358 73.3762 58.9634 73.2523 58.8148 73.1533L58.9387 72.9057Z" fill="white"/>
<path d="M62.7276 73.3019L63.6934 68.25H64.0154L63.5448 70.6026H63.5696C63.8668 70.1073 64.3125 69.8101 64.8821 69.8101C65.1793 69.8101 65.7241 69.9835 65.7241 70.7264C65.7241 70.9245 65.6993 71.1226 65.6745 71.2712L65.2783 73.3019H64.9564L65.3526 71.2465C65.3774 71.1226 65.4021 70.974 65.4021 70.7512C65.4021 70.3797 65.2288 70.0825 64.7583 70.0825C64.2382 70.0825 63.5448 70.6769 63.3963 71.4941L63.0496 73.3019H62.7276Z" fill="white"/>
<path d="M69.4882 71.2465C69.4882 72.1875 68.7948 73.4009 67.6804 73.4009C66.8384 73.4009 66.4174 72.7075 66.4174 72.0141C66.4174 70.9245 67.1851 69.8349 68.2252 69.8349C69.1415 69.8101 69.4882 70.5531 69.4882 71.2465ZM66.7394 71.9646C66.7394 72.6085 67.1108 73.1038 67.7052 73.1038C68.4729 73.1038 69.1415 72.1627 69.1415 71.2217C69.1415 70.7759 68.9186 70.0578 68.1757 70.0578C67.3585 70.0825 66.7394 71.0236 66.7394 71.9646Z" fill="white"/>
<path d="M71.2465 73.3019L71.717 70.8007C71.7913 70.454 71.8408 70.1568 71.8656 69.8844H72.1627L72.0637 70.6273H72.0884C72.3856 70.1321 72.8809 69.8101 73.4009 69.8101C73.6981 69.8101 74.2429 69.9835 74.2429 70.7759C74.2429 70.9245 74.2182 71.1226 74.1686 71.3207L73.7972 73.3019H73.4752L73.8715 71.2712C73.8962 71.1226 73.921 70.9493 73.921 70.8007C73.921 70.4045 73.7476 70.0825 73.2771 70.0825C72.7818 70.0825 72.0637 70.6273 71.9151 71.5436L71.5684 73.3019H71.2465Z" fill="white"/>
<path d="M77.1403 73.1038C76.967 73.2276 76.6203 73.3762 76.1002 73.3762C75.2335 73.3762 74.9116 72.7323 74.9116 72.0389C74.9116 71.0236 75.6793 69.8101 76.6946 69.8101C77.3137 69.8101 77.5861 70.2063 77.5861 70.6026C77.5861 71.5189 76.4717 71.717 75.283 71.6922C75.2335 71.8655 75.2583 72.2865 75.3326 72.5342C75.4564 72.9304 75.7783 73.1285 76.1498 73.1285C76.5708 73.1285 76.8679 72.9799 77.0413 72.8809L77.1403 73.1038ZM76.645 70.0825C76.0259 70.0825 75.5059 70.7264 75.3326 71.395C76.3479 71.4198 77.2642 71.2712 77.2642 70.6026C77.2642 70.2559 76.9917 70.0825 76.645 70.0825Z" fill="white"/>
<path d="M80.1616 73.1533C80.013 73.2276 79.6663 73.3762 79.1462 73.3762C78.23 73.3762 77.908 72.7323 77.908 72.1132C77.908 70.974 78.75 69.8101 79.9139 69.8101C80.2606 69.8101 80.5578 69.9339 80.6321 69.9835L80.5083 70.2559C80.3597 70.1816 80.1368 70.1073 79.8644 70.1073C78.8738 70.1073 78.23 71.1474 78.23 72.0637C78.23 72.658 78.5024 73.1038 79.1957 73.1038C79.592 73.1038 79.8891 72.9799 80.0625 72.8809L80.1616 73.1533Z" fill="white"/>
<path d="M83.0342 73.1038C82.8608 73.2276 82.5141 73.3762 81.9941 73.3762C81.1274 73.3762 80.8054 72.7323 80.8054 72.0389C80.8054 71.0236 81.5731 69.8101 82.5884 69.8101C83.2075 69.8101 83.4799 70.2063 83.4799 70.6026C83.4799 71.5189 82.3656 71.717 81.1769 71.6922C81.1274 71.8655 81.1521 72.2865 81.2264 72.5342C81.3502 72.9304 81.6722 73.1285 82.0436 73.1285C82.4646 73.1285 82.7618 72.9799 82.9351 72.8809L83.0342 73.1038ZM82.5389 70.0825C81.9198 70.0825 81.3998 70.7264 81.2264 71.395C82.2417 71.4198 83.158 71.2712 83.158 70.6026C83.158 70.2559 82.9104 70.0825 82.5389 70.0825Z" fill="white"/>
<path d="M83.8019 72.9057C83.9505 73.0047 84.1981 73.1038 84.4458 73.1038C84.9163 73.1038 85.2382 72.7818 85.2382 72.3856C85.2382 72.0637 85.1144 71.8656 84.7429 71.6427C84.3467 71.4198 84.1981 71.0979 84.1981 70.8007C84.1981 70.2807 84.6439 69.8349 85.263 69.8349C85.5106 69.8349 85.7583 69.9092 85.8573 70.0083L85.7335 70.2807C85.6344 70.2064 85.4363 70.1073 85.2134 70.1073C84.7925 70.1073 84.4953 70.4045 84.4953 70.7512C84.4953 71.0731 84.6686 71.2465 84.9906 71.4446C85.3868 71.6674 85.5601 71.9894 85.5601 72.3113C85.5601 72.9799 85.0153 73.3762 84.421 73.3762C84.0991 73.3762 83.8267 73.2523 83.6781 73.1533L83.8019 72.9057Z" fill="white"/>
<path d="M86.2783 72.9057C86.4269 73.0047 86.6745 73.1038 86.9222 73.1038C87.3927 73.1038 87.7146 72.7818 87.7146 72.3856C87.7146 72.0637 87.5908 71.8656 87.2193 71.6427C86.8231 71.4198 86.6745 71.0979 86.6745 70.8007C86.6745 70.2807 87.1203 69.8349 87.7394 69.8349C87.987 69.8349 88.2347 69.9092 88.3337 70.0083L88.2099 70.2807C88.1109 70.2064 87.9127 70.1073 87.6899 70.1073C87.2689 70.1073 86.9717 70.4045 86.9717 70.7512C86.9717 71.0731 87.1451 71.2465 87.467 71.4446C87.8632 71.6674 88.0366 71.9894 88.0366 72.3113C88.0366 72.9799 87.4917 73.3762 86.8974 73.3762C86.5755 73.3762 86.3031 73.2523 86.1545 73.1533L86.2783 72.9057Z" fill="white"/>
<path d="M88.7547 73.3019L89.3986 69.8844H89.7205L89.0767 73.3019H88.7547ZM89.4977 68.9186C89.4977 68.7701 89.6215 68.6462 89.7701 68.6462C89.9434 68.6462 90.0177 68.7701 90.0177 68.9186C89.9929 69.0672 89.9186 69.191 89.7453 69.191C89.5967 69.191 89.4977 69.0672 89.4977 68.9186Z" fill="white"/>
<path d="M91.5035 68.9929L91.3302 69.8844H92.1969L92.1474 70.1568H91.2807L90.9092 72.138C90.8597 72.3608 90.8349 72.5342 90.8349 72.7571C90.8349 72.9799 90.9587 73.1285 91.1816 73.1285C91.3054 73.1285 91.3797 73.1038 91.454 73.1038L91.4788 73.3514C91.3797 73.3762 91.2559 73.4009 91.1073 73.4009C90.6616 73.4009 90.4882 73.079 90.4882 72.7818C90.4882 72.5837 90.513 72.3608 90.5625 72.138L90.934 70.1816H90.4139L90.4634 69.9092H90.9835L91.1321 69.1167L91.5035 68.9929Z" fill="white"/>
<path d="M94.599 73.3019C94.599 73.079 94.6238 72.7075 94.6981 72.2865H94.6733C94.2771 73.079 93.7818 73.3762 93.237 73.3762C92.6427 73.3762 92.296 72.8809 92.296 72.2865C92.296 71.0731 93.237 69.8101 94.599 69.8101C94.8714 69.8101 95.1934 69.8596 95.3915 69.9092L95.0448 71.6922C94.921 72.3856 94.8714 72.9552 94.8962 73.3019H94.599ZM95.02 70.1568C94.9457 70.1321 94.7972 70.0825 94.5248 70.0825C93.4847 70.0825 92.6179 71.0731 92.6179 72.237C92.6179 72.658 92.7417 73.1038 93.3113 73.1038C93.9304 73.1038 94.6238 72.2865 94.7972 71.3207L95.02 70.1568Z" fill="white"/>
</svg>
